<mxfile host="app.diagrams.net" modified="2024-07-15T22:26:02.444Z" agent="Mozilla/5.0 (Windows NT 10.0; Win64; x64) AppleWebKit/537.36 (KHTML, like Gecko) Chrome/126.0.0.0 Safari/537.36 Edg/126.0.0.0" version="24.6.5" etag="0lmgmRsb_KxU2qmsLV3q" type="github">
  <diagram name="Page-1" id="W7Lah7nrtaDh8QP_45hI">
    <mxGraphModel>
      <root>
        <mxCell id="0" />
        <mxCell id="1" parent="0" />
      </root>
    </mxGraphModel>
  </diagram>
</mxfile>
